<svg xmlns="http://www.w3.org/2000/svg" viewBox="0 0 957.43 213.33"><defs><style>.cls-1{fill:#ffc812;}.cls-2{fill:none;stroke:#ffc812;}.cls-2,.cls-5{stroke-miterlimit:10;}.cls-3{fill:#fada02;}.cls-4,.cls-5,.cls-6{fill:#58595b;}.cls-5{stroke:#000;stroke-width:2px;}.cls-6{font-size:35px;font-family:Taviraj-SemiBold, Taviraj;font-weight:600;letter-spacing:0.13em;}</style></defs><title>Tspt Svg</title><g id="TAG"><path class="cls-1" d="M400.78,445.35l1,36.11-1.82.16q-5.46-18.42-14-27.43a27.42,27.42,0,0,0-20.64-9,31.09,31.09,0,0,0-16.17,4q-6.77,4-12.62,13.07-11.85,18.51-11.86,42.34a78.63,78.63,0,0,0,2.85,21.46,58,58,0,0,0,8.3,17.8q10.61,14.94,25.86,14.94a24.88,24.88,0,0,0,11.31-2.65,24,24,0,0,0,8.7-7.31,25.57,25.57,0,0,0,4.67-15.36q0-8.21-4.23-11.87t-14-3.65v-1.91h50.45V518q-7,.66-9.76,2a8.5,8.5,0,0,0-4.15,4.7q-1.52,3.64-1.51,14.52,0,3,.32,9.3l.16,1.91a13.9,13.9,0,0,0-4.43-1.16,8.37,8.37,0,0,0-4.43,1.9,51.74,51.74,0,0,1-16,7.64,68.29,68.29,0,0,1-19.22,2.66,61.11,61.11,0,0,1-25.11-5,45.11,45.11,0,0,1-18.15-14.28,51.4,51.4,0,0,1-8-16.6,72.69,72.69,0,0,1-2.81-20.42,74.26,74.26,0,0,1,5.07-27.64,55.37,55.37,0,0,1,14.23-21.09A53.85,53.85,0,0,1,342.1,446.1a58.76,58.76,0,0,1,20.72-3.66,52.32,52.32,0,0,1,11.74,1.25,59.18,59.18,0,0,1,11.51,4.07l4.67,2.24a8.07,8.07,0,0,0,3.16.75q3.17,0,4.82-5.4Z" transform="translate(-59.93 -442.44)"/><path class="cls-1" d="M466.42,551.93a14,14,0,0,1-3.52-6.76,60.12,60.12,0,0,1-1-12.58V471.9c-6.05,1.93-12.23,3.43-18.18,5.69v55a63,63,0,0,1-.91,12.62,13.44,13.44,0,0,1-3.57,6.72,14.07,14.07,0,0,1-5.19,3.45,26.42,26.42,0,0,1-7.76,1.37v1.91h53v-1.91a26.49,26.49,0,0,1-7.76-1.37A14.23,14.23,0,0,1,466.42,551.93Z" transform="translate(-59.93 -442.44)"/><path class="cls-1" d="M528.06,555.42a13.31,13.31,0,0,1-4-3.57,68.78,68.78,0,0,1-6.35-10.17q-3.78-7-11.16-22.2-3.16-6.65-4.73-9.26a19.81,19.81,0,0,0-3.49-4.36,25.29,25.29,0,0,0-7.39-4.31,59.39,59.39,0,0,0,9.67-2.83,28,28,0,0,0,6.6-3.81q9.8-7.82,9.8-20.76a26.39,26.39,0,0,0-4.53-15.31,27.37,27.37,0,0,0-12.74-9.92q-7.31-2.91-20.17-3.49-3.15-.07-13.2-.08H439.47c-.26.07-.54.15-.83.25l-.72.3a3.73,3.73,0,0,1-.93,1,3.48,3.48,0,0,1-.52.29c0,.8-.12,1.58-.17,2.37H436a12.49,12.49,0,0,1,3.25,2.54c2.19,2.46,2.08,6.82,2.06,7.44l.74.62a2.12,2.12,0,0,1,.47-1.48,7.82,7.82,0,0,1,1-3.48,13.44,13.44,0,0,1,7.58-5.8,3.79,3.79,0,0,1,2-.61l.46-.2c.71-.25,1.58-.46,9.33-.6l2.26,0h.2A64.44,64.44,0,0,1,479,449a20.33,20.33,0,0,1,8.3,3.95,25.51,25.51,0,0,1,7,9.5,30.5,30.5,0,0,1,2.53,12.33,27.27,27.27,0,0,1-8.72,20.58,19.4,19.4,0,0,1-8.34,4.82,51.45,51.45,0,0,1-10.66,1.1v2.05a19.24,19.24,0,0,1,3.15.54,14.4,14.4,0,0,1,4.81,2.37q4.39,3.32,9.71,12.37a208.9,208.9,0,0,1,10.55,21l5.81,13.19c.38.83,1.27,2.77,2.65,5.82h27.56v-1.91A15.25,15.25,0,0,1,528.06,555.42Z" transform="translate(-59.93 -442.44)"/><path class="cls-1" d="M655.23,554.59a22.2,22.2,0,0,1-6.48-6.14,47.09,47.09,0,0,1-5.19-8.76q-2.52-5.36-6.68-16.06L606.5,445.35h-4.73l-36.11,87.24a137.88,137.88,0,0,1-6.47,14.11,20.93,20.93,0,0,1-5.23,6.39,14.75,14.75,0,0,1-4.57,2.29,46.68,46.68,0,0,1-7.72,1.37v1.91h54.54v-1.91q-7.4-.68-10.29-2.49a10.07,10.07,0,0,1-5.15-9q0-3.4,2.32-9.13l1.41-3.49,8-19.59c.45-1.13.89-2.26,1.33-3.4l17.43-43,16.44,43c.44,1.14.88,2.27,1.33,3.4l4.31,11.46,2.08,5.15q3.74,9.12,3.73,14.36a12.22,12.22,0,0,1-1.37,5.72,11.93,11.93,0,0,1-3.69,4.32,16.82,16.82,0,0,1-8.3,2.66v1.91H663v-1.91A17.27,17.27,0,0,1,655.23,554.59Z" transform="translate(-59.93 -442.44)"/><path class="cls-1" d="M691.19,460.37v72.22a62.84,62.84,0,0,0,.92,12.62,14.24,14.24,0,0,0,3.42,6.72,13.46,13.46,0,0,0,5.11,3.49,25.41,25.41,0,0,0,7.44,1.33v1.91H671v-1.91a25.41,25.41,0,0,0,7.44-1.33,13.46,13.46,0,0,0,5.11-3.49,14.24,14.24,0,0,0,3.42-6.76,62.92,62.92,0,0,0,.92-12.58V471.33a62.3,62.3,0,0,0-.92-12.49,14.28,14.28,0,0,0-3.42-6.77,12.91,12.91,0,0,0-5-3.48,25.36,25.36,0,0,0-7.52-1.33v-1.91h31l65.31,86V471.41a61.81,61.81,0,0,0-.93-12.61,14.1,14.1,0,0,0-3.42-6.73,13.52,13.52,0,0,0-5.1-3.48,25.21,25.21,0,0,0-7.44-1.33v-1.91h37.08v1.91q-8.06,0-12.55,4.81a14.28,14.28,0,0,0-3.42,6.77,61.56,61.56,0,0,0-.92,12.49v87.33H767Z" transform="translate(-59.93 -442.44)"/><path class="cls-1" d="M837.13,447.92c-3,0-6.31.11-9.8.33q-11.16.67-16.65,3.24a20.51,20.51,0,0,0-9,8.88q-3.25,5.82-5,15.78L795,476l1.3-30.63h98.16l1.3,30.63-1.66.17q-2-11.55-6.13-17.48a23,23,0,0,0-12.16-8.51q-6.74-2.24-22.85-2.24v84.67a68.51,68.51,0,0,0,.84,12.58,14.73,14.73,0,0,0,3.08,6.76,12.11,12.11,0,0,0,4.61,3.49,20.9,20.9,0,0,0,6.71,1.33v1.91H821.82v-1.91a21.08,21.08,0,0,0,6.78-1.33,12.11,12.11,0,0,0,4.61-3.49,14.72,14.72,0,0,0,3.08-6.72,68.41,68.41,0,0,0,.84-12.62Z" transform="translate(-59.93 -442.44)"/><path class="cls-1" d="M934.42,498.06h51.75V471.41a68.29,68.29,0,0,0-.84-12.61,14.77,14.77,0,0,0-3.1-6.73,12.24,12.24,0,0,0-4.63-3.48,21,21,0,0,0-6.81-1.33v-1.91h46.57v1.91a20.83,20.83,0,0,0-6.74,1.33,12.24,12.24,0,0,0-4.63,3.48,14.78,14.78,0,0,0-3.1,6.77,68.65,68.65,0,0,0-.83,12.57v61.18a68.06,68.06,0,0,0,.83,12.54,15.3,15.3,0,0,0,3.1,6.8,13,13,0,0,0,4.63,3.45,20.48,20.48,0,0,0,6.74,1.37v1.91H970.79v-1.91a20.66,20.66,0,0,0,6.81-1.37,13,13,0,0,0,4.63-3.45,14.74,14.74,0,0,0,3.1-6.72,68.41,68.41,0,0,0,.84-12.62V502H934.42v30.63a68.51,68.51,0,0,0,.84,12.58,14.74,14.74,0,0,0,3.09,6.76,12.47,12.47,0,0,0,4.56,3.45,20.66,20.66,0,0,0,6.81,1.37v1.91H903.15v-1.91a20.66,20.66,0,0,0,6.81-1.37,12.39,12.39,0,0,0,4.56-3.45,14.09,14.09,0,0,0,3.13-6.72,70.9,70.9,0,0,0,.81-12.62V471.41a70.77,70.77,0,0,0-.81-12.61,14.12,14.12,0,0,0-3.13-6.73,11.61,11.61,0,0,0-4.59-3.48,21.28,21.28,0,0,0-6.78-1.33v-1.91h46.57v1.91a20.89,20.89,0,0,0-6.74,1.33,12.32,12.32,0,0,0-4.63,3.48,14.77,14.77,0,0,0-3.09,6.77,68.46,68.46,0,0,0-.84,12.57Z" transform="translate(-59.93 -442.44)"/><ellipse class="cls-1" cx="452.86" cy="475" rx="9.73" ry="5.96" transform="translate(-227.74 -180.7) rotate(-27.4)"/><path class="cls-2" d="M584.05,519.7a19.05,19.05,0,0,1,10.32-4.49c1.27-.12,9.19-.91,14.29,4.94a15.36,15.36,0,0,1,3.58,8.92l-.86,1.5a17,17,0,0,0-4.51-1.44,18.5,18.5,0,0,0-10.25,1.4,22.06,22.06,0,0,0-8.6,6.09,18.07,18.07,0,0,0-4.56,10.3c-.15,2-.33,4.5,1.33,6.68a8.68,8.68,0,0,0,6.38,3" transform="translate(-59.93 -442.44)"/><path class="cls-1" d="M594.87,525.1a1.5,1.5,0,0,0,0-3,1.5,1.5,0,0,0,0,3Z" transform="translate(-59.93 -442.44)"/><path class="cls-1" d="M590.82,518.21a31.66,31.66,0,0,1-3.6,4.74,54.1,54.1,0,0,0-3.68,5.32,53.25,53.25,0,0,0-5.15,11.63c-.57,1.85,2.32,2.64,2.89.8a49.48,49.48,0,0,1,5.05-11.23,47.18,47.18,0,0,1,3.47-5,29.31,29.31,0,0,0,3.61-4.77c.88-1.71-1.71-3.23-2.59-1.51Z" transform="translate(-59.93 -442.44)"/><path class="cls-1" d="M588.7,527.46a41.4,41.4,0,0,1-3.27,4.94,1.52,1.52,0,0,0-.15,1.16,1.57,1.57,0,0,0,.69.89,1.47,1.47,0,0,0,1.16.15,1.76,1.76,0,0,0,.89-.68,41.4,41.4,0,0,0,3.27-4.94,1.5,1.5,0,0,0-2.59-1.52Z" transform="translate(-59.93 -442.44)"/><path class="cls-1" d="M585.65,532.23a32.35,32.35,0,0,0-5.09,7.36,24,24,0,0,0-1.68,4.23,14.05,14.05,0,0,0-.12,4.71,1.54,1.54,0,0,0,1.5,1.5,1.51,1.51,0,0,0,1.5-1.5,11.48,11.48,0,0,1,0-4,20.61,20.61,0,0,1,1.46-3.62,29.47,29.47,0,0,1,4.5-6.5,1.55,1.55,0,0,0,0-2.13,1.52,1.52,0,0,0-2.12,0Z" transform="translate(-59.93 -442.44)"/><path class="cls-1" d="M579,544.93a27.59,27.59,0,0,0-.73,4.22,5.93,5.93,0,0,0,.6,3.91,1.5,1.5,0,1,0,2.59-1.52l-.12-.19c-.07-.14-.07-.13,0,.06a.94.94,0,0,1-.1-.31,1.94,1.94,0,0,1-.07-.33c0,.21,0,.23,0,.06s0-.15,0-.23a10.39,10.39,0,0,1,.09-1.58c0-.13,0-.27,0-.4s0-.18,0-.27c0,.16,0,.18,0,.07,0-.29.09-.57.14-.86.11-.61.25-1.22.4-1.83a1.5,1.5,0,0,0-2.89-.8Z" transform="translate(-59.93 -442.44)"/><path class="cls-1" d="M579.08,550.22a10.86,10.86,0,0,0-.11,2.48,1.27,1.27,0,0,0,.13.58,1.34,1.34,0,0,0,.8.79,1,1,0,0,0,.57.13,1.5,1.5,0,0,0,1.07-.44,1.45,1.45,0,0,0,.43-1.06,8.92,8.92,0,0,1,0-2l0,.4V551a1.18,1.18,0,0,0,0-.59,1.12,1.12,0,0,0-.18-.56,1,1,0,0,0-.39-.42,1.14,1.14,0,0,0-.51-.27,1.49,1.49,0,0,0-1.15.15l-.31.24a1.45,1.45,0,0,0-.38.66Z" transform="translate(-59.93 -442.44)"/><path class="cls-1" d="M581.26,554.63a1.5,1.5,0,0,0,0-3,1.5,1.5,0,0,0,0,3Z" transform="translate(-59.93 -442.44)"/><path class="cls-1" d="M610.34,525.47a23.68,23.68,0,0,0-3.5-4.35,1.5,1.5,0,0,0-2.12,2.12,23,23,0,0,1,2.07,2.33l-.24-.31a20.51,20.51,0,0,1,1.2,1.73,1.67,1.67,0,0,0,.9.69,1.56,1.56,0,0,0,1.16-.15,1.53,1.53,0,0,0,.53-2.06Z" transform="translate(-59.93 -442.44)"/><path class="cls-1" d="M607,522.58a1.62,1.62,0,0,0,.23-2,2.71,2.71,0,0,0-1-.83c-.45-.27-.9-.52-1.36-.76a26.71,26.71,0,0,0-3.1-1.36,1.5,1.5,0,0,0-1.69,2.2,1.65,1.65,0,0,0,.89.69c.35.13.69.26,1,.41l-.36-.16c.61.26,1.21.54,1.8.85l.85.46a7.23,7.23,0,0,1,.84.51l-.31-.23,0,0-.23-.31,0,0-.16-.36,0,.05,0-.4v0l.44-1.06,0,0a1.53,1.53,0,0,0,0,2.12,1.51,1.51,0,0,0,2.12,0Z" transform="translate(-59.93 -442.44)"/><path class="cls-1" d="M601.38,517.58c-2.5-.82-5.79-1.52-8.29-.39s-3.6,3.66-5,5.82-3.06,4.26-4.49,6.47a25.9,25.9,0,0,0-1.93,3.5,18.14,18.14,0,0,1-1.76,3.56,1.51,1.51,0,0,0,.53,2.05,1.54,1.54,0,0,0,2.06-.54c1.37-1.86,2-4.23,3.16-6.21s2.73-4,4.1-5.92c.68-1,1.3-2,1.91-3a8.35,8.35,0,0,1,2-2.62c1.82-1.34,4.92-.42,6.85.22s2.62-2.29.79-2.9Z" transform="translate(-59.93 -442.44)"/><path class="cls-1" d="M596.53,522.72a7.82,7.82,0,0,1-3.15,2.15c-1.48.68-3,1.29-4.51,1.92l1.46,2.51c1.68-2,3.95-3.39,5.86-5.17,1-.93,2.22-2.4,1-3.7-.84-.88-2.49-1-3.64-1.14a5.63,5.63,0,0,0-5.82,4.48c-.39,1.72,1,2.88,2.59,2.92a32.79,32.79,0,0,0,4.64-.42l5.14-.61c.8-.1,1.6-.2,2.4-.33.31-.05.61-.11.91-.13h.34c.13,0,.34.16.14,0l-.24-1.81c.17-.26-.22,0-.4,0s-.53.12-.8.17c-.59.11-1.18.16-1.77.22a25.11,25.11,0,0,0-3.77.5,10,10,0,0,0-3.41,1.55,13,13,0,0,0-3,2.53,1.55,1.55,0,0,0,0,2.12,1.51,1.51,0,0,0,2.12,0,9.59,9.59,0,0,1,6.24-3.53c1.31-.17,2.63-.23,3.93-.43a4.52,4.52,0,0,0,3.4-1.67,1.5,1.5,0,0,0-.23-1.82,4.21,4.21,0,0,0-3.57-.76c-1.33.21-2.65.39-4,.54l-4.26.51c-.73.08-1.46.17-2.18.23l-1.1.08-.6,0c0,.08,0,.11.14.1l.21.76a2.87,2.87,0,0,1,1.54-2.14,3.09,3.09,0,0,1,1.54-.1c.29,0,.58.11.87.18l.52.13c.31.11.23,0-.23-.23l-.21-.75c0-.28.3-.45,0-.17-.17.13-.31.31-.47.45s-.51.47-.78.7c-.59.51-1.21,1-1.83,1.47a20.83,20.83,0,0,0-3.34,3.09A1.56,1.56,0,0,0,588,529a1.5,1.5,0,0,0,1.69.69c1.82-.76,3.66-1.49,5.44-2.34a9.83,9.83,0,0,0,4-3.12,1.5,1.5,0,1,0-2.59-1.51Z" transform="translate(-59.93 -442.44)"/><path class="cls-1" d="M590.71,530.64a19.71,19.71,0,0,0-3.09,2.6,1.59,1.59,0,0,0-.44,1.06,1.56,1.56,0,0,0,.44,1.06,1.52,1.52,0,0,0,1.06.44,1.68,1.68,0,0,0,1.06-.44l.36-.32a1.52,1.52,0,0,0,.44-1.06,1.5,1.5,0,0,0-1.5-1.5,1.63,1.63,0,0,0-1.06.44l-.36.32,2.12,2.12a13.55,13.55,0,0,1,1.78-1.61l-.3.23,1-.75a1,1,0,0,0,.42-.38,1.06,1.06,0,0,0,.27-.51,1.5,1.5,0,0,0-1-1.85,1.49,1.49,0,0,0-1.15.15Z" transform="translate(-59.93 -442.44)"/><path class="cls-1" d="M596.83,527.58a28.5,28.5,0,0,0-3.22,1.49,1.5,1.5,0,0,0-.54,2,1.5,1.5,0,0,0,.89.69,1.61,1.61,0,0,0,1.16-.15c.73-.4,1.49-.76,2.26-1.09l-.36.15.6-.24a1.14,1.14,0,0,0,.51-.27,1.12,1.12,0,0,0,.39-.42,1.52,1.52,0,0,0,.15-1.16,1.55,1.55,0,0,0-.69-.9,1.5,1.5,0,0,0-1.15-.15Z" transform="translate(-59.93 -442.44)"/><path class="cls-1" d="M598.17,527.17a3.6,3.6,0,0,1-.82.26l1.16,2.74a7.62,7.62,0,0,1,2.07-.64,21,21,0,0,1,2.33-.39,24.4,24.4,0,0,1,2.56-.14,6.39,6.39,0,0,1,1.94.12l.36-2.74-.35.13a1.52,1.52,0,0,0-1,1.84,1.5,1.5,0,0,0,1.84,1l.36-.12a1.5,1.5,0,0,0,1.07-1.25,1.48,1.48,0,0,0-.71-1.5c-1.83-.8-4.07-.6-6-.39a27.55,27.55,0,0,0-3.13.5,9.11,9.11,0,0,0-2.79.94,1.51,1.51,0,0,0,1.16,2.75,7.61,7.61,0,0,0,1.53-.57,1.51,1.51,0,0,0,.54-2,1.53,1.53,0,0,0-2.05-.54Z" transform="translate(-59.93 -442.44)"/><path class="cls-1" d="M607.93,529.55a5.44,5.44,0,0,0,2.71.75l.4-.06a1.06,1.06,0,0,0,.51-.27,1.44,1.44,0,0,0,.53-.77c.09-.32.17-.64.27-1l-.15.36v0l-.23.3,0,0-.66.39h-.75l-.35-.15h0l-.3-.23,0,0-.23-.3,0,.06-.15-.36a2.19,2.19,0,0,1,.14.56l0-.4a2.43,2.43,0,0,1,0,.66l0-.4a.51.51,0,0,1,0,.13,1.11,1.11,0,0,0,0,.6,1,1,0,0,0,.17.56,1.55,1.55,0,0,0,.9.69,1.5,1.5,0,0,0,1.85-1.05,4.28,4.28,0,0,0,.08-1.13,3.7,3.7,0,0,0-.38-1.42,1.85,1.85,0,0,0-.59-.59,1.6,1.6,0,0,0-1.19-.16,1.41,1.41,0,0,0-.83.56,1.81,1.81,0,0,0-.31.62l-.24.87,1.45-1.1-.55-.06.4,0a3.63,3.63,0,0,1-1-.24l.36.15a1.88,1.88,0,0,1-.44-.24,1,1,0,0,0-.56-.17,1.08,1.08,0,0,0-.59,0,1.56,1.56,0,0,0-.9.69,1.52,1.52,0,0,0-.15,1.16l.15.36a1.45,1.45,0,0,0,.54.53Z" transform="translate(-59.93 -442.44)"/><path class="cls-1" d="M471.38,446l-33.46-.08a11.49,11.49,0,0,0-5.35,5.38,11.36,11.36,0,0,0,1.84,12.06,11.5,11.5,0,0,0,6.67,3.58l1.13-.86a13.88,13.88,0,0,1,.33-7.47,14.13,14.13,0,0,1,4.33-6.36c1.85-1.58,4.67-3.17,13.53-4a94.51,94.51,0,0,1,15.32-.07,168.86,168.86,0,0,1,18.64,2.36" transform="translate(-59.93 -442.44)"/><path class="cls-1" d="M436.21,449a.76.76,0,0,1-.4.72c-.24.16-.52.25-.77.41-.76.51-.88,1.55-1.32,2.36a10.57,10.57,0,0,0-.73,1.26c-.54,1.45.73,2.93.81,4.47a8.61,8.61,0,0,0,0,1,1.83,1.83,0,0,0,.84,1.25" transform="translate(-59.93 -442.44)"/><path class="cls-1" d="M437.41,450.39c-.32,1.17-1.23,2.08-1.69,3.19a9.05,9.05,0,0,0-.43,3.52,6.33,6.33,0,0,0,.13,1.44,14.23,14.23,0,0,0,1.33,2.68" transform="translate(-59.93 -442.44)"/><path class="cls-1" d="M440.67,465.12a.91.91,0,0,1-.72-.38,2.68,2.68,0,0,1-.35-.77,28.74,28.74,0,0,1-1.11-5.11" transform="translate(-59.93 -442.44)"/><path class="cls-1" d="M439.32,450.09a22.09,22.09,0,0,0-1.82,5.13,19.74,19.74,0,0,0-.11,4.48,32.83,32.83,0,0,0,2.41-7,44.94,44.94,0,0,1-.28,6.86" transform="translate(-59.93 -442.44)"/><path class="cls-1" d="M441,457.36a10.51,10.51,0,0,0-.77,4.83" transform="translate(-59.93 -442.44)"/><path class="cls-1" d="M440.76,458.55a5.73,5.73,0,0,1-.1,1.65,14.34,14.34,0,0,0-.09,3.07" transform="translate(-59.93 -442.44)"/><path class="cls-1" d="M434.47,461.06c.77.77,1.14,1.9,2,2.56s1.91.7,2.76,1.24c-.4-.78-.81-1.55-1.18-2.35a7,7,0,0,1-.76-2.38,8,8,0,0,1,1.07-3.91" transform="translate(-59.93 -442.44)"/><path class="cls-1" d="M446.45,450.8c-1.72.55-2.75,2.24-3.64,3.8l-2.14,3.76" transform="translate(-59.93 -442.44)"/><path class="cls-1" d="M456.88,447.18a93.83,93.83,0,0,0-10.54,3" transform="translate(-59.93 -442.44)"/><rect class="cls-1" x="396.68" y="25.53" width="5.32" height="11.57"/><path class="cls-1" d="M437.55,450.32" transform="translate(-59.93 -442.44)"/><path class="cls-3" d="M437.55,451.82a1.5,1.5,0,0,0,0-3,1.5,1.5,0,0,0,0,3Z" transform="translate(-59.93 -442.44)"/><rect class="cls-1" x="371.66" y="2.91" width="8.23" height="9.69"/><path class="cls-4" d="M150.88,638.33a85.56,85.56,0,0,1-32.95-6.62,94.4,94.4,0,0,1-35.58-28.08,111.13,111.13,0,0,1-18.71-38.82,96.67,96.67,0,0,1-2.81-28.54A120.26,120.26,0,0,1,63.64,519c2.53-12.16,6-21.25,11.69-30.41,9.33-14.5,19.83-25,32.12-32l.5.86c-12.15,6.95-22.54,17.31-31.77,31.66-5.6,9.05-9.06,18.05-11.57,30.09a121.61,121.61,0,0,0-2.78,17.16,96,96,0,0,0,2.78,28.24A109.88,109.88,0,0,0,83.15,603a93.57,93.57,0,0,0,35.18,27.77A83.66,83.66,0,0,0,187.18,629a7.12,7.12,0,0,1,3.54-2.28l.22,1a6.34,6.34,0,0,0-3.11,2.06l-.13.1A83.75,83.75,0,0,1,150.88,638.33Z" transform="translate(-59.93 -442.44)"/><path class="cls-4" d="M149.73,632.28a65.11,65.11,0,0,1-9.48-.69l.14-1v-1h.15a64.76,64.76,0,0,0,11.48.63l.07,2C151.31,632.26,150.52,632.28,149.73,632.28Z" transform="translate(-59.93 -442.44)"/><path class="cls-5" d="M196.33,612.35" transform="translate(-59.93 -442.44)"/><path class="cls-5" d="M197.82,608.88" transform="translate(-59.93 -442.44)"/><path class="cls-5" d="M95.24,596.64" transform="translate(-59.93 -442.44)"/><path class="cls-5" d="M97.43,601.12" transform="translate(-59.93 -442.44)"/><path class="cls-5" d="M98.33,602.39" transform="translate(-59.93 -442.44)"/><path class="cls-5" d="M100,604.34" transform="translate(-59.93 -442.44)"/><path class="cls-4" d="M168.4,553c0,2,.11,3.91.16,5.86a40.9,40.9,0,0,1,14.58,0c3.87.72,7.4,1.39,10.61,4.28a16.75,16.75,0,0,1,4.44,6.5l.44,33.27a29.37,29.37,0,0,1-3.54,8.64A32.36,32.36,0,0,1,182.23,623a42.92,42.92,0,0,1-12.6,4.4,82.94,82.94,0,0,1-44-3.61A66.79,66.79,0,0,1,99,604.32c-12.78-15.79-14.48-33.73-15.84-48.17a162.6,162.6,0,0,1-.32-22.82,167,167,0,0,1,2.85-25.67c2.08-10.65,4.29-22,11.41-34.54a88.23,88.23,0,0,1,18.86-23c-19.88,10-30.75,23-36,30.42C53.05,518.79,65.83,564,68.73,574.21c.79,2.82,1.63,5.76,2.63,8.77a5.63,5.63,0,0,1,4.14,4.26,10.05,10.05,0,0,0,2.19,4.92c1.15,1.66,2.64,3.34,4,5.18,2.53,3.35,4.21,7.33,7.24,10.25a72,72,0,0,0,21.93,14.52c2.2.94,3.18,3.48,3,5.82a117.56,117.56,0,0,0,21.2,5.71c13.12,2.24,34,5.82,54.36-4.8,4.64-2.42,15.7-8.37,23.13-21.19a51.38,51.38,0,0,0,5.71-14.74l.15-39.3Z" transform="translate(-59.93 -442.44)"/><path class="cls-4" d="M66.64,568l1.16,9.12a.72.72,0,0,0,.7.7.71.71,0,0,0,.7-.7v-.91a.7.7,0,0,0-1.4,0v.91h1.4L68,568a.73.73,0,0,0-.7-.7.71.71,0,0,0-.7.7Z" transform="translate(-59.93 -442.44)"/><path class="cls-4" d="M68.49,575.35a.7.7,0,0,0,0-1.4.7.7,0,0,0,0,1.4Z" transform="translate(-59.93 -442.44)"/><path class="cls-4" d="M68.9,500.49c.07-.59,0,.07-.08.2s-.25.62-.11.33-.13.27-.15.32c-.15.32-.28.63-.41,1a16.81,16.81,0,0,0-.76,2.2,19,19,0,0,0-.62,5.15,2.1,2.1,0,1,0,4.19,0c0-.41,0-.83,0-1.24,0-.2,0-.39,0-.58s0-.83,0-.27a5.56,5.56,0,0,1,.2-1.14c.08-.38.18-.76.28-1.13s.23-.74.36-1.11c.08-.2.15-.42.24-.61-.15.31,0,.08,0-.1a9.16,9.16,0,0,0,.92-3A2.09,2.09,0,0,0,71,498.4a2.16,2.16,0,0,0-2.1,2.09Z" transform="translate(-59.93 -442.44)"/><path class="cls-4" d="M66.1,507.33a35.12,35.12,0,0,0-1.76,5.05c-.38,1.8-.62,3.64-.92,5.45a60.6,60.6,0,0,0-1.28,11.54,3.49,3.49,0,0,0,7,0,36.12,36.12,0,0,1,.36-5.59l-.13.93c.36-2.66.85-5.31,1.29-8a23.75,23.75,0,0,1,.77-3.73c.44-1.28,1-2.55,1.43-3.82a3.52,3.52,0,0,0-2.44-4.3,3.6,3.6,0,0,0-4.3,2.44Z" transform="translate(-59.93 -442.44)"/><path class="cls-4" d="M62.75,518.1c-.7,3.84-1.57,7.69-1.54,11.6,0,3.71.15,7.45.5,11.14a3.78,3.78,0,0,0,1,2.47,3.58,3.58,0,0,0,2.47,1c1.75-.08,3.67-1.54,3.49-3.49-.24-2.54-.34-5.08-.42-7.63a46.08,46.08,0,0,1,.15-7.43l-.12.93c.32-2.26.77-4.5,1.18-6.75a3.76,3.76,0,0,0-.35-2.69A3.58,3.58,0,0,0,67,515.66c-1.71-.39-4,.52-4.29,2.44Z" transform="translate(-59.93 -442.44)"/><path class="cls-4" d="M60.92,531.72A28.69,28.69,0,0,0,62,546a3.49,3.49,0,0,0,6.73-1.85,26.68,26.68,0,0,1-1.2-5l.13.93a25.22,25.22,0,0,1,0-6.61l-.12.92c0-.28.08-.56.13-.84a3.81,3.81,0,0,0-.35-2.69,3.58,3.58,0,0,0-2.09-1.61c-1.69-.38-4,.52-4.29,2.44Z" transform="translate(-59.93 -442.44)"/><path class="cls-4" d="M60.67,542.56a11.28,11.28,0,0,0,.76,5c.48,1.35,1.11,2.63,1.55,4a3.69,3.69,0,0,0,1.61,2.09,3.56,3.56,0,0,0,2.69.35,3.51,3.51,0,0,0,2.44-4.3c-.7-2.14-1.87-4.13-2.18-6.39l.13.93a6.92,6.92,0,0,1,0-1.64,3.49,3.49,0,0,0-1-2.47,3.5,3.5,0,0,0-4.94,0l-.54.71a3.4,3.4,0,0,0-.48,1.76Z" transform="translate(-59.93 -442.44)"/><path class="cls-4" d="M60.75,547.71a9.7,9.7,0,0,1,.2,1l-.13-.93c.36,2.86-.16,5.89,1,8.61a3.84,3.84,0,0,0,1.6,2.09,3.5,3.5,0,0,0,4.78-1.25,3.4,3.4,0,0,0,.35-2.69,8.65,8.65,0,0,1-.57-2.18l.12.93c-.31-2.5,0-5-.6-7.48a3.52,3.52,0,0,0-4.3-2.44,3.57,3.57,0,0,0-2.44,4.29Z" transform="translate(-59.93 -442.44)"/><path class="cls-4" d="M61.76,557.29c.14,1.29.28,2.57.44,3.86a20.32,20.32,0,0,0,.4,2.56,15.06,15.06,0,0,0,1,2.49c1,2.36,2.17,4.7,3.26,7a3.51,3.51,0,0,0,2.08,1.6,3.56,3.56,0,0,0,2.69-.35,3.51,3.51,0,0,0,1.61-2.09,4,4,0,0,0-.35-2.69c-1.14-2.45-2.32-4.88-3.4-7.35l.35.84a10.69,10.69,0,0,1-.69-2.55l.13.93c-.19-1.43-.34-2.87-.5-4.3a3.84,3.84,0,0,0-1-2.47,3.5,3.5,0,0,0-4.94,0,3.41,3.41,0,0,0-1,2.47Z" transform="translate(-59.93 -442.44)"/><path class="cls-4" d="M70.15,577.37a3.49,3.49,0,1,0-3.49-3.49,3.54,3.54,0,0,0,3.49,3.49Z" transform="translate(-59.93 -442.44)"/><path class="cls-4" d="M65.11,571.25l.79,2.13a2.69,2.69,0,0,0,.63,1.19,2.48,2.48,0,0,0,1,.89,2.53,2.53,0,0,0,1.29.42,2.77,2.77,0,0,0,1.4-.06l.83-.36a3.48,3.48,0,0,0,1.25-1.25l.35-.83a3.46,3.46,0,0,0,0-1.86l-.79-2.13a2.53,2.53,0,0,0-.62-1.19,2.65,2.65,0,0,0-1-.9,4,4,0,0,0-2.69-.35l-.83.35a3.46,3.46,0,0,0-1.26,1.26l-.35.83a3.66,3.66,0,0,0,0,1.86Z" transform="translate(-59.93 -442.44)"/><path class="cls-4" d="M70.39,579a3.49,3.49,0,1,0-3.49-3.49A3.56,3.56,0,0,0,70.39,579Z" transform="translate(-59.93 -442.44)"/><path class="cls-4" d="M81.23,589a19.37,19.37,0,0,0-.38-5.15,2.69,2.69,0,0,0-.63-1.19,2.58,2.58,0,0,0-1-.9,2.62,2.62,0,0,0-1.29-.41,2.77,2.77,0,0,0-1.4.06A3.54,3.54,0,0,0,74.47,583l-.35.83a3.46,3.46,0,0,0,0,1.86c.06.32.11.64.16,1l-.13-.93a15.45,15.45,0,0,1,.1,3.26,2.57,2.57,0,0,0,.3,1.34,3.1,3.1,0,0,0,1.85,1.85,2.57,2.57,0,0,0,1.34.3,3.56,3.56,0,0,0,2.47-1l.54-.71a3.4,3.4,0,0,0,.48-1.76Z" transform="translate(-59.93 -442.44)"/><path class="cls-4" d="M67.9,578a8.81,8.81,0,0,0,.95,1.92l.78,1.16,1.61,2.38a2.58,2.58,0,0,0,.9,1,2.64,2.64,0,0,0,1.19.63,2.73,2.73,0,0,0,1.39.06,2.65,2.65,0,0,0,1.3-.41,3.56,3.56,0,0,0,1.6-2.09,3.5,3.5,0,0,0-.35-2.69l-1.53-2.27a14.19,14.19,0,0,1-1.4-2.21l.35.84-.06-.16A2.69,2.69,0,0,0,74,575a2.73,2.73,0,0,0-1-.9,2.67,2.67,0,0,0-1.3-.42,2.63,2.63,0,0,0-1.39.07,3.5,3.5,0,0,0-2.09,1.6A3.4,3.4,0,0,0,67.9,578Z" transform="translate(-59.93 -442.44)"/><path class="cls-4" d="M69.72,581.9c1.16,2.39,2.41,4.74,3.76,7a3.64,3.64,0,0,0,2.09,1.6,3.48,3.48,0,0,0,4.29-2.44,3.66,3.66,0,0,0-.35-2.69q-2-3.43-3.76-7a3.5,3.5,0,0,0-2.09-1.6,3.48,3.48,0,0,0-4.29,2.44l-.13.92a3.56,3.56,0,0,0,.48,1.77Z" transform="translate(-59.93 -442.44)"/><path class="cls-4" d="M86.61,597.07a4.16,4.16,0,0,1-.28-1.09l.13.93a23.88,23.88,0,0,0-.33-2.4,13.24,13.24,0,0,0-.9-2.17l.35.84a2.13,2.13,0,0,1-.15-.49l.13.93v-.07a2.62,2.62,0,0,0-.3-1.35,2.58,2.58,0,0,0-.72-1.12,2.61,2.61,0,0,0-1.13-.72,2.57,2.57,0,0,0-1.34-.3,3.5,3.5,0,0,0-2.47,1l-.55.7a3.55,3.55,0,0,0-.47,1.77,7.43,7.43,0,0,0,.19,1.24,9.42,9.42,0,0,0,.47,1.14c.11.25.24.49.35.73l-.35-.83a5.09,5.09,0,0,1,.26,1l-.13-.93c.09.65.15,1.3.24,2a4.85,4.85,0,0,0,.27,1.06,2.6,2.6,0,0,0,.63,1.18,2.58,2.58,0,0,0,1,.9,2.54,2.54,0,0,0,1.3.42,2.74,2.74,0,0,0,1.39-.06,3.54,3.54,0,0,0,2.08-1.61l.36-.83a3.66,3.66,0,0,0,0-1.86Z" transform="translate(-59.93 -442.44)"/><path class="cls-4" d="M75.27,592.4a50.1,50.1,0,0,0,8.59,11.33,3.52,3.52,0,0,0,4.93,0,3.56,3.56,0,0,0,0-4.94,62.55,62.55,0,0,1-4.5-5.13l.54.71a37.7,37.7,0,0,1-3.53-5.49,3.52,3.52,0,0,0-4.78-1.25,3.56,3.56,0,0,0-1.25,4.77Z" transform="translate(-59.93 -442.44)"/><path class="cls-4" d="M101.29,618.05a4.22,4.22,0,0,0,.15,1.32,5.17,5.17,0,0,0,.47,1.14,4.79,4.79,0,0,0,1.11,1.38,31.15,31.15,0,0,0,2.63,1.93l4.39,3.07a3.49,3.49,0,0,0,5.12-3.95,3.89,3.89,0,0,0-1.6-2.08c-2-1.41-4.09-2.77-6.06-4.25l.7.54a4.12,4.12,0,0,1-.61-.57l.54.7a1.79,1.79,0,0,1-.25-.42l.35.83a1.29,1.29,0,0,1-.08-.28l.12.93a1.41,1.41,0,0,1,0-.29,3.49,3.49,0,0,0-6-2.47,3.92,3.92,0,0,0-1,2.47Z" transform="translate(-59.93 -442.44)"/><path class="cls-4" d="M84.07,604.76c1.72,1.58,3.47,3.11,5.27,4.6a3.87,3.87,0,0,0,2.47,1,3.5,3.5,0,0,0,3.49-3.49,3.42,3.42,0,0,0-1-2.47c-1.79-1.48-3.54-3-5.26-4.59a3.63,3.63,0,0,0-2.47-1,3.59,3.59,0,0,0-2.47,1,3.49,3.49,0,0,0,0,4.93Z" transform="translate(-59.93 -442.44)"/><path class="cls-4" d="M87.45,608.09a17.31,17.31,0,0,0,3.36,3.53c1.3,1,2.65,1.93,4,2.81a3.5,3.5,0,0,0,4.78-1.25,3.57,3.57,0,0,0,.35-2.69,3.73,3.73,0,0,0-1.61-2.09c-1.1-.7-2.21-1.41-3.25-2.2l.71.54a15,15,0,0,1-2.71-2.63l.55.7a2.35,2.35,0,0,1-.19-.25,2.73,2.73,0,0,0-.9-1A2.69,2.69,0,0,0,91.4,603a3.56,3.56,0,0,0-2.69.35,3.51,3.51,0,0,0-1.61,2.09,3.42,3.42,0,0,0,.35,2.69Z" transform="translate(-59.93 -442.44)"/><path class="cls-4" d="M89.11,608.09a3.49,3.49,0,1,0-3.49-3.49,3.52,3.52,0,0,0,3.49,3.49Z" transform="translate(-59.93 -442.44)"/><path class="cls-4" d="M93.25,614.43a19,19,0,0,0,2.22,1.78,5.13,5.13,0,0,0,.81.49,7.26,7.26,0,0,0,1.19.49,10.33,10.33,0,0,0,1.36.18l-.93-.12.15,0-.84-.35.11.06-.71-.54a5.3,5.3,0,0,1,.73.84l-.54-.7,0,.06a2.55,2.55,0,0,0,.89,1,2.58,2.58,0,0,0,1.19.62,2.64,2.64,0,0,0,1.39.07,2.54,2.54,0,0,0,1.3-.42,3.53,3.53,0,0,0,1.61-2.08l.12-.93a3.4,3.4,0,0,0-.48-1.76,16.77,16.77,0,0,0-1.18-1.49,4.09,4.09,0,0,0-1.79-1.09,10.35,10.35,0,0,0-1.36-.19l.93.12a1.48,1.48,0,0,1-.41-.12l.84.36a7.17,7.17,0,0,1-1.43-.93l.71.55a11.63,11.63,0,0,1-1-.85,3.69,3.69,0,0,0-2.47-1,3.87,3.87,0,0,0-2.47,1,3.5,3.5,0,0,0,0,4.94Z" transform="translate(-59.93 -442.44)"/><path class="cls-4" d="M102.12,620.33a3.49,3.49,0,1,0-3.49-3.49,3.53,3.53,0,0,0,3.49,3.49Z" transform="translate(-59.93 -442.44)"/><path class="cls-4" d="M115.86,629.43a32.67,32.67,0,0,0,7.84,2.66,42.81,42.81,0,0,1,7.3,2.07l-.83-.35c.42.18.84.38,1.24.59a3.49,3.49,0,1,0,3.53-6,32.17,32.17,0,0,0-7.74-2.64,45.36,45.36,0,0,1-7.23-2l.84.36c-.49-.21-1-.43-1.43-.67a3.49,3.49,0,0,0-3.52,6Z" transform="translate(-59.93 -442.44)"/><path class="cls-4" d="M124.81,632.84q4.68,1.75,9.44,3.32a3.53,3.53,0,0,0,4.29-2.44,3.57,3.57,0,0,0-2.44-4.3q-4.75-1.56-9.43-3.31a3.47,3.47,0,0,0-2.69.35,3.46,3.46,0,0,0-1.25,4.77,3.93,3.93,0,0,0,2.08,1.61Z" transform="translate(-59.93 -442.44)"/><path class="cls-4" d="M130.77,635a3.49,3.49,0,1,0-3.5-3.49,3.54,3.54,0,0,0,3.5,3.49Z" transform="translate(-59.93 -442.44)"/><path class="cls-4" d="M150.73,637.8a3.49,3.49,0,1,0-3.49-3.49,3.56,3.56,0,0,0,3.49,3.49Z" transform="translate(-59.93 -442.44)"/><path class="cls-4" d="M144.73,637.15a3.49,3.49,0,1,0-3.49-3.49,3.53,3.53,0,0,0,3.49,3.49Z" transform="translate(-59.93 -442.44)"/><path class="cls-4" d="M145.62,637.39a3.5,3.5,0,1,0-3.49-3.49,3.53,3.53,0,0,0,3.49,3.49Z" transform="translate(-59.93 -442.44)"/><path class="cls-4" d="M145,637.51a3.5,3.5,0,1,0-3.49-3.5,3.54,3.54,0,0,0,3.49,3.5Z" transform="translate(-59.93 -442.44)"/><path class="cls-4" d="M147.52,637.39A3.5,3.5,0,1,0,144,633.9a3.53,3.53,0,0,0,3.49,3.49Z" transform="translate(-59.93 -442.44)"/><path class="cls-4" d="M147.94,637.51a3.5,3.5,0,1,0-3.49-3.5,3.53,3.53,0,0,0,3.49,3.5Z" transform="translate(-59.93 -442.44)"/><path class="cls-4" d="M148.53,637.51A3.5,3.5,0,1,0,145,634a3.53,3.53,0,0,0,3.49,3.5Z" transform="translate(-59.93 -442.44)"/><path class="cls-4" d="M138,636.61a3.49,3.49,0,1,0-3.5-3.49,3.53,3.53,0,0,0,3.5,3.49Z" transform="translate(-59.93 -442.44)"/><path class="cls-4" d="M140,636.91a3.49,3.49,0,1,0-3.5-3.49,3.53,3.53,0,0,0,3.5,3.49Z" transform="translate(-59.93 -442.44)"/><path class="cls-4" d="M142.29,637.15a3.49,3.49,0,1,0-3.49-3.49,3.54,3.54,0,0,0,3.49,3.49Z" transform="translate(-59.93 -442.44)"/><path class="cls-4" d="M181,624.81c-.37,0-.75.09-1.11.15l-.21,0a2.4,2.4,0,0,0-.38.12,3.86,3.86,0,0,0-2.09,1.6,2.65,2.65,0,0,0-.41,1.3,2.53,2.53,0,0,0,.06,1.39l.35.84a3.56,3.56,0,0,0,1.25,1.25l.84.35a3.42,3.42,0,0,0,1.85,0,2.69,2.69,0,0,1,.62-.16l-.93.12H181a2.78,2.78,0,0,0,1.34-.3,2.73,2.73,0,0,0,1.13-.73,3.87,3.87,0,0,0,1-2.47l-.13-.92a3.42,3.42,0,0,0-.89-1.54l-.71-.55a3.5,3.5,0,0,0-1.76-.48Z" transform="translate(-59.93 -442.44)"/><path class="cls-4" d="M178.9,632.51a3.49,3.49,0,1,0-3.49-3.49,3.53,3.53,0,0,0,3.49,3.49Z" transform="translate(-59.93 -442.44)"/><path class="cls-4" d="M153.17,637.62a3.49,3.49,0,1,0-3.49-3.49,3.53,3.53,0,0,0,3.49,3.49Z" transform="translate(-59.93 -442.44)"/><path class="cls-4" d="M155.64,630.46a6,6,0,0,1-.61.12l.93-.12a4.35,4.35,0,0,1-1.14,0l.93.12h-.11a2.53,2.53,0,0,0-1.39-.06,2.69,2.69,0,0,0-1.3.41,3.86,3.86,0,0,0-1.6,2.09l-.12.93a3.52,3.52,0,0,0,.47,1.76l.55.7a3.35,3.35,0,0,0,1.54.9,8.31,8.31,0,0,0,1.86.17c.46,0,.92-.1,1.37-.17l.48-.11a2.6,2.6,0,0,0,1.18-.63,2.58,2.58,0,0,0,.9-1,2.53,2.53,0,0,0,.42-1.29,2.77,2.77,0,0,0-.06-1.4l-.36-.83a3.48,3.48,0,0,0-1.25-1.25l-.83-.35a3.46,3.46,0,0,0-1.86,0Z" transform="translate(-59.93 -442.44)"/><path class="cls-4" d="M177.83,633.23a3.5,3.5,0,1,0-3.49-3.49,3.53,3.53,0,0,0,3.49,3.49Z" transform="translate(-59.93 -442.44)"/><path class="cls-4" d="M175.69,633.76a3.49,3.49,0,1,0-3.49-3.49,3.52,3.52,0,0,0,3.49,3.49Z" transform="translate(-59.93 -442.44)"/><path class="cls-4" d="M173.61,634.36a3.5,3.5,0,1,0-3.49-3.5,3.53,3.53,0,0,0,3.49,3.5Z" transform="translate(-59.93 -442.44)"/><path class="cls-4" d="M172,634.65a3.49,3.49,0,1,0-3.49-3.49,3.53,3.53,0,0,0,3.49,3.49Z" transform="translate(-59.93 -442.44)"/><path class="cls-4" d="M172.36,627.82a36,36,0,0,0-4.51.63c-1.24.27-2.38.92-3.63,1.09l.93-.13c-2.17.22-4.39.17-6.57.24a3.49,3.49,0,0,0,0,7c2.11-.07,4.25,0,6.35-.21a9.31,9.31,0,0,0,2.17-.38c.46-.16.91-.37,1.37-.52a15.42,15.42,0,0,1,2.91-.63l-.93.12,1.91-.21a3.76,3.76,0,0,0,2.47-1,3.53,3.53,0,0,0,1-2.47c-.07-1.74-1.54-3.68-3.49-3.49Z" transform="translate(-59.93 -442.44)"/><path class="cls-4" d="M162.5,636.79A3.49,3.49,0,1,0,159,633.3a3.53,3.53,0,0,0,3.49,3.49Z" transform="translate(-59.93 -442.44)"/><path class="cls-4" d="M160.72,630.05h-.06a2.62,2.62,0,0,0-1.35.3,2.58,2.58,0,0,0-1.12.72,2.64,2.64,0,0,0-.72,1.12,2.74,2.74,0,0,0-.31,1.35l.13.93a3.49,3.49,0,0,0,.9,1.54l.7.54a3.46,3.46,0,0,0,1.77.48h.06a3.87,3.87,0,0,0,2.46-1,2.73,2.73,0,0,0,.73-1.13,2.78,2.78,0,0,0,.3-1.34l-.13-.93a3.4,3.4,0,0,0-.9-1.54l-.7-.55a3.52,3.52,0,0,0-1.76-.47Z" transform="translate(-59.93 -442.44)"/><path class="cls-4" d="M159.11,637.33a3.5,3.5,0,1,0-3.49-3.49,3.53,3.53,0,0,0,3.49,3.49Z" transform="translate(-59.93 -442.44)"/><path class="cls-4" d="M157.39,637.56a3.49,3.49,0,1,0-3.49-3.49,3.53,3.53,0,0,0,3.49,3.49Z" transform="translate(-59.93 -442.44)"/><path class="cls-4" d="M167.67,635.9a3.49,3.49,0,1,0-3.49-3.49,3.53,3.53,0,0,0,3.49,3.49Z" transform="translate(-59.93 -442.44)"/><path class="cls-4" d="M169.75,635.54a3.49,3.49,0,1,0-3.49-3.49,3.53,3.53,0,0,0,3.49,3.49Z" transform="translate(-59.93 -442.44)"/><path class="cls-4" d="M183.22,629.31A89.93,89.93,0,0,1,155,635c-22.32.84-43.54-6.81-60.74-20.41a3.8,3.8,0,0,1-.33.37,5.88,5.88,0,0,1,1.21,1.76A93.12,93.12,0,0,0,155,636a91.3,91.3,0,0,0,28.28-5.59A7.59,7.59,0,0,1,183.22,629.31Z" transform="translate(-59.93 -442.44)"/><path class="cls-4" d="M168.74,558.81V553h-.67v5.86h.37Z" transform="translate(-59.93 -442.44)"/><path class="cls-4" d="M60.86,540.52a98,98,0,0,1,46.84-83.8,6.7,6.7,0,0,1,1.27-1.79l.11-.11a99.35,99.35,0,0,0-17,158.94,5.51,5.51,0,0,1,2.72,2.39,96.26,96.26,0,0,0,33.47,18.51,7.16,7.16,0,0,1,1.16-.1,6.21,6.21,0,0,1,3.1.77l1.77.06C92.23,625.05,60.86,586.44,60.86,540.52Z" transform="translate(-59.93 -442.44)"/><rect class="cls-4" x="108.14" y="113.47" width="21.32" height="2.93"/><path class="cls-1" d="M110.68,607.21a91.7,91.7,0,0,1-12.24-20.08c-6.91-15.56-7.5-29-8.08-41.83a141.76,141.76,0,0,1,3-39.7c2.8-12.37,5.47-24.2,14.57-36.6,4.66-6.37,13.9-19,31.14-24.25,17.81-5.46,33.11.17,39.45,2.62a68.1,68.1,0,0,1,20.92,12.83c.71.63,3.27,2.32,5.39,1.51,1.34-.52,2.15-1.93,2.77-3a11.17,11.17,0,0,0,1.35-4q.15-4.16.32-8.31l9.66.07-.48,50.24-9.19-.16a62.32,62.32,0,0,0-12.36-27.42,52.31,52.31,0,0,0-17.43-14.89c-1.88-1-18.48-9.17-36.44-3.65-25.67,7.9-34.94,37.92-39,51-3.66,11.84-4.23,21.45-4.76,30.27-1.18,19.87,2.07,35.93,4.76,49.28A264.3,264.3,0,0,0,110.68,607.21Z" transform="translate(-59.93 -442.44)"/><rect class="cls-1" x="148.72" y="3.57" width="5.94" height="12.84"/><rect class="cls-1" x="148.72" y="3.57" width="10.3" height="11.76"/><rect class="cls-1" x="149.24" y="5.18" width="9.77" height="49.04"/><rect class="cls-4" x="245.13" y="142.51" width="711.88" height="3.87"/><rect class="cls-4" x="156.89" y="538.21" width="195.41" height="3.87" transform="translate(734.81 -156.89) rotate(90)"/><text class="cls-6" transform="translate(261.3 195.41)">PLETHORA OF OPPORTUNITIES</text><path class="cls-1" d="M590.81,515.92c-2.41,2-3.91,4.82-5.45,7.46q-2.65,4.53-5.15,9.16c-.92,1.7,1.67,3.21,2.59,1.51q2.43-4.49,5-8.88c1.47-2.52,2.84-5.26,5.14-7.13a1.51,1.51,0,0,0,0-2.12,1.54,1.54,0,0,0-2.12,0Z" transform="translate(-59.93 -442.44)"/><path class="cls-1" d="M586.73,526.13a63,63,0,0,0-5.64,12.77,1.51,1.51,0,0,0,2.51,1.46c2-1.93,3.23-4.46,5.06-6.53s4.6-3.11,7.35-4c1.84-.57,1.06-3.46-.8-2.89-3.07.94-6.15,2-8.4,4.43-2,2.12-3.25,4.81-5.34,6.83L584,539.7a59.53,59.53,0,0,1,5.34-12.05,1.5,1.5,0,0,0-2.59-1.52Z" transform="translate(-59.93 -442.44)"/><path class="cls-1" d="M595.05,527a28.45,28.45,0,0,1-2.7,1.63c-.45.24-.92.47-1.39.69a5.64,5.64,0,0,1-.71.31c.41-.13,0,0-.11.05l-.39.15a1.71,1.71,0,0,0-.9.69,1.61,1.61,0,0,0-.15,1.16,1.52,1.52,0,0,0,1.85,1,29.86,29.86,0,0,0,6-3.13,1.54,1.54,0,0,0,.54-2.06,1.51,1.51,0,0,0-2.05-.53Z" transform="translate(-59.93 -442.44)"/><path class="cls-1" d="M597.4,525.74c-.59.56-1.18,1.12-1.8,1.64l-.23.18c-.11.1.11-.07-.1.08l-.47.34a9.45,9.45,0,0,1-1.06.62l-.27.13c-.22.1.19-.07,0,0s-.38.14-.57.2c-.42.13-.84.23-1.26.37a11,11,0,0,0-2.62,1.22,1.5,1.5,0,1,0,1.51,2.59,9.54,9.54,0,0,1,1.17-.64s.33-.14.15-.07l.29-.11.59-.19a14.91,14.91,0,0,0,2.69-1,19.45,19.45,0,0,0,4.14-3.26,1.52,1.52,0,0,0,0-2.13,1.54,1.54,0,0,0-2.12,0Z" transform="translate(-59.93 -442.44)"/><path class="cls-1" d="M586.32,532.59a14,14,0,0,0-2.52,3.57,1.54,1.54,0,0,0-.15,1.15,1.49,1.49,0,0,0,.69.9,1.52,1.52,0,0,0,2-.54,19.59,19.59,0,0,1,1.46-2.35l-.23.31a6.57,6.57,0,0,1,.83-.92,1.55,1.55,0,0,0,.43-1.06,1.5,1.5,0,0,0-2.56-1.06Z" transform="translate(-59.93 -442.44)"/><path class="cls-1" d="M580.61,544.17l-.11,5.19-.06,2.55a3,3,0,0,0,.7,2.55,1.5,1.5,0,1,0,2.12-2.12,1.51,1.51,0,0,1,.15.28c0,.18,0,.22,0,.1a1.69,1.69,0,0,0,0-.45l0-1.18,0-2.28.1-4.64a1.51,1.51,0,0,0-1.5-1.5,1.53,1.53,0,0,0-1.5,1.5Z" transform="translate(-59.93 -442.44)"/><path class="cls-1" d="M586.85,533.64c-.14.41.08-.11,0,.1a2.9,2.9,0,0,1-.19.29c.12-.17,0,0-.07.09l-.25.26c-.33.32-.69.61-1,.92a13.29,13.29,0,0,0-2.09,2.4,13.59,13.59,0,0,0-2.22,6,1.5,1.5,0,0,0,1.5,1.5,1.54,1.54,0,0,0,1.5-1.5c0,.22,0,0,0-.13s0-.25.07-.37.1-.45.16-.67a11.67,11.67,0,0,1,.47-1.37c-.08.19,0-.06.06-.13l.13-.27c.11-.23.23-.46.36-.68a11.82,11.82,0,0,1,.79-1.2c-.09.12,0,0,.05-.06a3.47,3.47,0,0,1,.25-.29c.15-.18.3-.34.46-.51.33-.34.69-.64,1-1a6.09,6.09,0,0,0,1.92-2.6,1.51,1.51,0,0,0-1-1.85,1.54,1.54,0,0,0-1.84,1Z" transform="translate(-59.93 -442.44)"/><path class="cls-1" d="M605.47,522.16a43.15,43.15,0,0,0-7.42-1.88c-1.32-.22-2.64-.38-4-.48s-2.74-.28-3.35,1.12c-.2.46-.05.94-.19,1.38,0,.14-.32.38-.48.56a2.43,2.43,0,0,0-.72,1.84,1.8,1.8,0,0,0,1.35,1.45,5.19,5.19,0,0,0,1.8,0c.73-.06,1.46-.16,2.19-.27,1.22-.2,2.4-.61,3.61-.81a7.56,7.56,0,0,1,3.88.89,23.77,23.77,0,0,1,3.74,2,1.51,1.51,0,0,0,2.05-.53,2.84,2.84,0,0,0-1.19-3.88c-1.32-.82-2.8-1.42-4.15-2.21a31.5,31.5,0,0,0-4.07-2.23,18,18,0,0,0-4.61-.9,1.51,1.51,0,0,0-1.5,1.5,1.54,1.54,0,0,0,1.5,1.5,15.71,15.71,0,0,1,3.27.6,14.11,14.11,0,0,1,2.85,1.5q1.56,1,3.18,1.8l1.47.74c.11.06.49.34.58.32a.24.24,0,0,1,.09.08.56.56,0,0,1,0-.34l2-.54a19.93,19.93,0,0,0-7.93-3.26,12.37,12.37,0,0,0-4.13.63c-.66.14-1.31.27-2,.36a6.23,6.23,0,0,1-2.07.15l.9.69-.1-.14.15,1.16c0,.15-.06.06.06-.07s.19-.21.29-.31a4.6,4.6,0,0,0,.67-1,2.9,2.9,0,0,0,.26-1v-.38c0-.33.13-.29-.06,0l-.54.54c-.26.05-.27.07-.06.06l.45,0,.6,0,1.65.15c1,.11,2,.27,3,.46a44.42,44.42,0,0,1,6.08,1.65c1.83.63,2.61-2.26.8-2.89Z" transform="translate(-59.93 -442.44)"/><path class="cls-1" d="M592.68,519.55q.65-.15,1.29-.24l-.4.06a14.58,14.58,0,0,1,2.09-.14,1.56,1.56,0,0,0,1.06-.44,1.5,1.5,0,0,0,.44-1.06,1.54,1.54,0,0,0-1.5-1.5,17,17,0,0,0-3.77.42,1.52,1.52,0,0,0-1,1.85,1.54,1.54,0,0,0,1.84,1Z" transform="translate(-59.93 -442.44)"/><path class="cls-1" d="M592.47,518.57l3.65,0h3c.16,0,.15,0,0,0a1.53,1.53,0,0,0,2.05-.54,1.51,1.51,0,0,0-.54-2,10.32,10.32,0,0,0-4.15-.39l-3.95,0a1.5,1.5,0,0,0,0,3Z" transform="translate(-59.93 -442.44)"/><path class="cls-1" d="M596.08,518.33a5.5,5.5,0,0,0,1,.24l.74.1.29,0a14.81,14.81,0,0,1,1.85.38,16.29,16.29,0,0,1,1.79.59h0l.21.09.31.16a1.33,1.33,0,0,1,.4.24c-.15-.12-.16-.12,0,0l.16.17a1.51,1.51,0,0,0,2.12,0,1.53,1.53,0,0,0,0-2.12,8.59,8.59,0,0,0-3.91-1.94,16,16,0,0,0-2-.42l-.81-.11-.27,0c.17,0,.17,0,0,0a6.64,6.64,0,0,1-1.07-.25,1.5,1.5,0,0,0-1.84,1,1.53,1.53,0,0,0,1.05,1.84Z" transform="translate(-59.93 -442.44)"/><path class="cls-1" d="M599.81,518.87c1,.44,2.08.88,3.07,1.41a16.38,16.38,0,0,1,1.41.84l.33.24s.28.2.07,0,0,0,0,0,.29.31.13.12,0,0,0,0-.12-.36-.06-.1l1.45-1.9H606a1.5,1.5,0,0,0,0,3h.22a1.51,1.51,0,0,0,1.44-1.89,3.33,3.33,0,0,0-1.44-1.84,14,14,0,0,0-1.55-1,34.9,34.9,0,0,0-3.34-1.56,1.62,1.62,0,0,0-1.16-.15,1.54,1.54,0,0,0-.9.68,1.56,1.56,0,0,0-.15,1.16,1.43,1.43,0,0,0,.69.9Z" transform="translate(-59.93 -442.44)"/><path class="cls-1" d="M599.88,518.59a27.57,27.57,0,0,0,5.18,2.14,1.51,1.51,0,0,0,1.84-1.05,1.53,1.53,0,0,0-1-1.84c-1-.34-2-.68-3-1.09l.35.15a16.18,16.18,0,0,1-1.82-.9,1.5,1.5,0,1,0-1.51,2.59Z" transform="translate(-59.93 -442.44)"/><path class="cls-1" d="M606.27,521.64a3.37,3.37,0,0,0,.35.22c-.07,0-.21-.19-.06,0l.18.18.14.16c.14.14-.16-.23,0-.06s.16.23.23.35.33.54.48.82l.21.42a1.45,1.45,0,0,1,.09.22c-.05-.19-.06-.14,0,0a7,7,0,0,1,.27.89,1.57,1.57,0,0,0,0,.23c.05.22,0-.27,0-.06s0,.31.05.47a4.52,4.52,0,0,0,.65,2.24,1.5,1.5,0,1,0,2.59-1.52,1,1,0,0,1-.11-.17c-.18-.25,0,.19,0,0s-.08-.29-.12-.45,0,0,0,.09a.82.82,0,0,0,0-.22c0-.16,0-.32-.05-.47a8.54,8.54,0,0,0-.69-2.54,6.69,6.69,0,0,0-2.67-3.4,1.5,1.5,0,0,0-1.52,2.59Z" transform="translate(-59.93 -442.44)"/><path class="cls-1" d="M611.68,530.81a.75.75,0,0,0,0-1.5.75.75,0,0,0,0,1.5Z" transform="translate(-59.93 -442.44)"/><path class="cls-1" d="M611.55,530.93a1.13,1.13,0,0,0,0-2.25,1.13,1.13,0,0,0,0,2.25Z" transform="translate(-59.93 -442.44)"/><path class="cls-1" d="M611.68,531.19a1.13,1.13,0,0,0,0-2.25,1.13,1.13,0,0,0,0,2.25Z" transform="translate(-59.93 -442.44)"/><path class="cls-1" d="M611.62,530.74a1.13,1.13,0,0,0,0-2.25,1.13,1.13,0,0,0,0,2.25Z" transform="translate(-59.93 -442.44)"/><path class="cls-1" d="M611.62,530.61a1.13,1.13,0,0,0,0-2.25,1.13,1.13,0,0,0,0,2.25Z" transform="translate(-59.93 -442.44)"/><path class="cls-1" d="M611.62,530.93a1.13,1.13,0,0,0,0-2.25,1.13,1.13,0,0,0,0,2.25Z" transform="translate(-59.93 -442.44)"/></g></svg>